<svg width="128" height="128" viewBox="0 0 128 128" fill="none" xmlns="http://www.w3.org/2000/svg">
<g id="Group 16970">
<g id="Group 16959">
<circle id="Ellipse 6" cx="124.8" cy="3.2" r="3.2" transform="rotate(90 124.8 3.2)" fill="#EE7220"/>
<circle id="Ellipse 7" cx="113.829" cy="3.2" r="3.2" transform="rotate(90 113.829 3.2)" fill="#EE7220"/>
<circle id="Ellipse 8" cx="102.857" cy="3.2" r="3.2" transform="rotate(90 102.857 3.2)" fill="#EE7220"/>
<circle id="Ellipse 9" cx="91.8857" cy="3.2" r="3.2" transform="rotate(90 91.8857 3.2)" fill="#EE7220"/>
<circle id="Ellipse 10" cx="80.9143" cy="3.2" r="3.2" transform="rotate(90 80.9143 3.2)" fill="#EE7220"/>
<circle id="Ellipse 11" cx="69.9428" cy="3.2" r="3.2" transform="rotate(90 69.9428 3.2)" fill="#EE7220"/>
<circle id="Ellipse 12" cx="58.9714" cy="3.2" r="3.2" transform="rotate(90 58.9714 3.2)" fill="#EE7220"/>
<circle id="Ellipse 13" cx="48" cy="3.2" r="3.2" transform="rotate(90 48 3.2)" fill="#EE7220"/>
<circle id="Ellipse 14" cx="37.0285" cy="3.2" r="3.2" transform="rotate(90 37.0285 3.2)" fill="#EE7220"/>
<circle id="Ellipse 15" cx="26.0571" cy="3.2" r="3.2" transform="rotate(90 26.0571 3.2)" fill="#EE7220"/>
<g id="Group 16958">
<circle id="Ellipse 16" cx="15.0856" cy="3.2" r="3.2" transform="rotate(90 15.0856 3.2)" fill="#EE7220"/>
<circle id="Ellipse 17" cx="3.1999" cy="3.2" r="3.2" transform="rotate(90 3.1999 3.2)" fill="#EE7220"/>
</g>
</g>
<g id="Group 16960">
<circle id="Ellipse 6_2" cx="124.8" cy="14.1714" r="3.2" transform="rotate(90 124.8 14.1714)" fill="#EE7220"/>
<circle id="Ellipse 7_2" cx="113.829" cy="14.1714" r="3.2" transform="rotate(90 113.829 14.1714)" fill="#EE7220"/>
<circle id="Ellipse 8_2" cx="102.857" cy="14.1714" r="3.2" transform="rotate(90 102.857 14.1714)" fill="#EE7220"/>
<circle id="Ellipse 9_2" cx="91.8857" cy="14.1714" r="3.2" transform="rotate(90 91.8857 14.1714)" fill="#EE7220"/>
<circle id="Ellipse 10_2" cx="80.9143" cy="14.1714" r="3.2" transform="rotate(90 80.9143 14.1714)" fill="#EE7220"/>
<circle id="Ellipse 11_2" cx="69.9428" cy="14.1714" r="3.2" transform="rotate(90 69.9428 14.1714)" fill="#EE7220"/>
<circle id="Ellipse 12_2" cx="58.9714" cy="14.1714" r="3.2" transform="rotate(90 58.9714 14.1714)" fill="#EE7220"/>
<circle id="Ellipse 13_2" cx="48" cy="14.1714" r="3.2" transform="rotate(90 48 14.1714)" fill="#EE7220"/>
<circle id="Ellipse 14_2" cx="37.0285" cy="14.1714" r="3.2" transform="rotate(90 37.0285 14.1714)" fill="#EE7220"/>
<circle id="Ellipse 15_2" cx="26.0571" cy="14.1714" r="3.2" transform="rotate(90 26.0571 14.1714)" fill="#EE7220"/>
<g id="Group 16958_2">
<circle id="Ellipse 16_2" cx="15.0856" cy="14.1714" r="3.2" transform="rotate(90 15.0856 14.1714)" fill="#EE7220"/>
</g>
</g>
<g id="Group 16961">
<circle id="Ellipse 6_3" cx="124.8" cy="25.1429" r="3.2" transform="rotate(90 124.8 25.1429)" fill="#EE7220"/>
<circle id="Ellipse 7_3" cx="113.829" cy="25.1429" r="3.2" transform="rotate(90 113.829 25.1429)" fill="#EE7220"/>
<circle id="Ellipse 8_3" cx="102.857" cy="25.1429" r="3.2" transform="rotate(90 102.857 25.1429)" fill="#EE7220"/>
<circle id="Ellipse 9_3" cx="91.8857" cy="25.1429" r="3.2" transform="rotate(90 91.8857 25.1429)" fill="#EE7220"/>
<circle id="Ellipse 10_3" cx="80.9143" cy="25.1429" r="3.2" transform="rotate(90 80.9143 25.1429)" fill="#EE7220"/>
<circle id="Ellipse 11_3" cx="69.9428" cy="25.1429" r="3.2" transform="rotate(90 69.9428 25.1429)" fill="#EE7220"/>
<circle id="Ellipse 12_3" cx="58.9714" cy="25.1429" r="3.2" transform="rotate(90 58.9714 25.1429)" fill="#EE7220"/>
<circle id="Ellipse 13_3" cx="48" cy="25.1429" r="3.2" transform="rotate(90 48 25.1429)" fill="#EE7220"/>
<circle id="Ellipse 14_3" cx="37.0285" cy="25.1429" r="3.2" transform="rotate(90 37.0285 25.1429)" fill="#EE7220"/>
<circle id="Ellipse 15_3" cx="26.0571" cy="25.1429" r="3.2" transform="rotate(90 26.0571 25.1429)" fill="#EE7220"/>
</g>
<g id="Group 16962">
<circle id="Ellipse 6_4" cx="124.8" cy="36.1143" r="3.2" transform="rotate(90 124.8 36.1143)" fill="#EE7220"/>
<circle id="Ellipse 7_4" cx="113.829" cy="36.1143" r="3.2" transform="rotate(90 113.829 36.1143)" fill="#EE7220"/>
<circle id="Ellipse 8_4" cx="102.857" cy="36.1143" r="3.2" transform="rotate(90 102.857 36.1143)" fill="#EE7220"/>
<circle id="Ellipse 9_4" cx="91.8857" cy="36.1143" r="3.2" transform="rotate(90 91.8857 36.1143)" fill="#EE7220"/>
<circle id="Ellipse 10_4" cx="80.9143" cy="36.1143" r="3.2" transform="rotate(90 80.9143 36.1143)" fill="#EE7220"/>
<circle id="Ellipse 11_4" cx="69.9428" cy="36.1143" r="3.2" transform="rotate(90 69.9428 36.1143)" fill="#EE7220"/>
<circle id="Ellipse 12_4" cx="58.9714" cy="36.1143" r="3.2" transform="rotate(90 58.9714 36.1143)" fill="#EE7220"/>
<circle id="Ellipse 13_4" cx="48" cy="36.1143" r="3.2" transform="rotate(90 48 36.1143)" fill="#EE7220"/>
<circle id="Ellipse 14_4" cx="37.0285" cy="36.1143" r="3.2" transform="rotate(90 37.0285 36.1143)" fill="#EE7220"/>
</g>
<g id="Group 16963">
<circle id="Ellipse 6_5" cx="124.8" cy="47.0857" r="3.2" transform="rotate(90 124.8 47.0857)" fill="#EE7220"/>
<circle id="Ellipse 7_5" cx="113.829" cy="47.0857" r="3.2" transform="rotate(90 113.829 47.0857)" fill="#EE7220"/>
<circle id="Ellipse 8_5" cx="102.857" cy="47.0857" r="3.2" transform="rotate(90 102.857 47.0857)" fill="#EE7220"/>
<circle id="Ellipse 9_5" cx="91.8857" cy="47.0857" r="3.2" transform="rotate(90 91.8857 47.0857)" fill="#EE7220"/>
<circle id="Ellipse 10_5" cx="80.9143" cy="47.0857" r="3.2" transform="rotate(90 80.9143 47.0857)" fill="#EE7220"/>
<circle id="Ellipse 11_5" cx="69.9428" cy="47.0857" r="3.2" transform="rotate(90 69.9428 47.0857)" fill="#EE7220"/>
<circle id="Ellipse 12_5" cx="58.9714" cy="47.0857" r="3.2" transform="rotate(90 58.9714 47.0857)" fill="#EE7220"/>
<circle id="Ellipse 13_5" cx="48" cy="47.0857" r="3.2" transform="rotate(90 48 47.0857)" fill="#EE7220"/>
</g>
<g id="Group 16964">
<circle id="Ellipse 6_6" cx="124.8" cy="58.0572" r="3.2" transform="rotate(90 124.8 58.0572)" fill="#EE7220"/>
<circle id="Ellipse 7_6" cx="113.829" cy="58.0572" r="3.2" transform="rotate(90 113.829 58.0572)" fill="#EE7220"/>
<circle id="Ellipse 8_6" cx="102.857" cy="58.0572" r="3.2" transform="rotate(90 102.857 58.0572)" fill="#EE7220"/>
<circle id="Ellipse 9_6" cx="91.8857" cy="58.0572" r="3.2" transform="rotate(90 91.8857 58.0572)" fill="#EE7220"/>
<circle id="Ellipse 10_6" cx="80.9143" cy="58.0572" r="3.2" transform="rotate(90 80.9143 58.0572)" fill="#EE7220"/>
<circle id="Ellipse 11_6" cx="69.9428" cy="58.0572" r="3.2" transform="rotate(90 69.9428 58.0572)" fill="#EE7220"/>
<circle id="Ellipse 12_6" cx="58.9714" cy="58.0572" r="3.2" transform="rotate(90 58.9714 58.0572)" fill="#EE7220"/>
</g>
<g id="Group 16965">
<circle id="Ellipse 6_7" cx="124.8" cy="69.0286" r="3.2" transform="rotate(90 124.8 69.0286)" fill="#EE7220"/>
<circle id="Ellipse 7_7" cx="113.829" cy="69.0286" r="3.2" transform="rotate(90 113.829 69.0286)" fill="#EE7220"/>
<circle id="Ellipse 8_7" cx="102.857" cy="69.0286" r="3.2" transform="rotate(90 102.857 69.0286)" fill="#EE7220"/>
<circle id="Ellipse 9_7" cx="91.8857" cy="69.0286" r="3.2" transform="rotate(90 91.8857 69.0286)" fill="#EE7220"/>
<circle id="Ellipse 10_7" cx="80.9143" cy="69.0286" r="3.2" transform="rotate(90 80.9143 69.0286)" fill="#EE7220"/>
<circle id="Ellipse 11_7" cx="69.9428" cy="69.0286" r="3.2" transform="rotate(90 69.9428 69.0286)" fill="#EE7220"/>
</g>
<g id="Group 16966">
<circle id="Ellipse 6_8" cx="124.8" cy="80" r="3.2" transform="rotate(90 124.8 80)" fill="#EE7220"/>
<circle id="Ellipse 7_8" cx="113.829" cy="80" r="3.2" transform="rotate(90 113.829 80)" fill="#EE7220"/>
<circle id="Ellipse 8_8" cx="102.857" cy="80" r="3.2" transform="rotate(90 102.857 80)" fill="#EE7220"/>
<circle id="Ellipse 9_8" cx="91.8857" cy="80" r="3.2" transform="rotate(90 91.8857 80)" fill="#EE7220"/>
<circle id="Ellipse 10_8" cx="80.9143" cy="80" r="3.2" transform="rotate(90 80.9143 80)" fill="#EE7220"/>
</g>
<g id="Group 16967">
<circle id="Ellipse 6_9" cx="124.8" cy="90.9715" r="3.2" transform="rotate(90 124.8 90.9715)" fill="#EE7220"/>
<circle id="Ellipse 7_9" cx="113.829" cy="90.9715" r="3.2" transform="rotate(90 113.829 90.9715)" fill="#EE7220"/>
<circle id="Ellipse 8_9" cx="102.857" cy="90.9715" r="3.2" transform="rotate(90 102.857 90.9715)" fill="#EE7220"/>
<circle id="Ellipse 9_9" cx="91.8857" cy="90.9715" r="3.2" transform="rotate(90 91.8857 90.9715)" fill="#EE7220"/>
</g>
<g id="Group 16968">
<circle id="Ellipse 6_10" cx="124.8" cy="101.943" r="3.2" transform="rotate(90 124.8 101.943)" fill="#EE7220"/>
<circle id="Ellipse 7_10" cx="113.829" cy="101.943" r="3.2" transform="rotate(90 113.829 101.943)" fill="#EE7220"/>
<circle id="Ellipse 8_10" cx="102.857" cy="101.943" r="3.2" transform="rotate(90 102.857 101.943)" fill="#EE7220"/>
</g>
<g id="Group 16969">
<circle id="Ellipse 6_11" cx="124.8" cy="112.914" r="3.2" transform="rotate(90 124.8 112.914)" fill="#EE7220"/>
<circle id="Ellipse 7_11" cx="113.829" cy="112.914" r="3.2" transform="rotate(90 113.829 112.914)" fill="#EE7220"/>
<circle id="Ellipse 16_3" cx="124.8" cy="124.8" r="3.2" transform="rotate(90 124.8 124.8)" fill="#EE7220"/>
</g>
</g>
</svg>
