<?xml version="1.0" standalone="no"?>
<!DOCTYPE svg PUBLIC "-//W3C//DTD SVG 20010904//EN"
 "http://www.w3.org/TR/2001/REC-SVG-20010904/DTD/svg10.dtd">
<svg version="1.0" xmlns="http://www.w3.org/2000/svg"
 width="320.000000pt" height="320.000000pt" viewBox="0 0 320.000000 320.000000"
 preserveAspectRatio="xMidYMid meet">
<metadata>
Created by potrace 1.14, written by Peter Selinger 2001-2017
</metadata>
<g transform="translate(0.000000,320.000000) scale(0.100000,-0.100000)"
fill="#000000" stroke="none">
<path d="M1015 2900 c-32 -52 -35 -62 -24 -82 11 -21 11 -22 -5 -9 -15 13 -19
13 -27 0 -9 -14 -12 -28 -10 -41 0 -5 -3 -8 -9 -8 -5 0 -16 -14 -25 -30 -12
-24 -13 -35 -4 -53 9 -18 9 -20 -2 -9 -7 6 -32 12 -55 12 -37 0 -43 -3 -54
-31 -8 -17 -13 -37 -13 -43 0 -7 -9 -11 -21 -9 -35 7 -141 -23 -138 -37 2 -10
0 -11 -11 -2 -11 9 -31 8 -86 -4 l-71 -16 32 -33 c18 -18 92 -85 163 -150 161
-146 155 -140 128 -126 -20 10 -25 7 -51 -31 -83 -121 -146 -293 -164 -448
-16 -134 -16 -134 80 -125 119 10 122 12 122 52 0 97 58 279 121 377 16 26 26
53 23 59 -4 7 12 -6 35 -28 l42 -40 29 32 30 33 56 -25 c31 -14 61 -25 66 -25
5 0 34 17 64 38 l55 37 -4 72 -4 72 38 15 39 16 -25 56 c-14 31 -19 52 -12 46
8 -7 30 -6 72 5 37 9 107 15 180 15 73 0 143 -6 180 -15 42 -11 64 -12 72 -5
7 6 2 -15 -12 -46 l-25 -56 39 -16 38 -15 -4 -72 -4 -72 55 -37 c54 -37 76
-45 90 -31 4 4 27 15 52 24 l46 18 29 -32 c25 -28 31 -30 42 -17 21 25 71 66
62 51 -5 -9 -1 -19 11 -28 10 -8 18 -17 17 -21 0 -4 16 -43 37 -87 44 -90 68
-177 77 -270 7 -73 1 -70 131 -81 l82 -7 0 41 c0 167 -73 395 -172 540 -26 38
-31 41 -51 31 -27 -14 -39 -26 133 131 80 73 144 136 142 142 -1 5 2 7 6 4 5
-3 17 3 26 13 16 18 14 19 -55 35 -55 12 -75 13 -86 4 -11 -9 -13 -8 -11 2 3
14 -103 44 -138 37 -12 -2 -21 2 -21 9 0 6 -5 26 -13 43 -11 28 -17 31 -54 31
-23 0 -48 -6 -55 -12 -11 -11 -11 -9 -2 10 10 19 7 31 -20 80 -18 31 -34 59
-35 61 -2 2 -11 -2 -20 -10 -16 -13 -16 -12 -5 9 10 19 7 30 -21 79 -19 31
-38 58 -43 60 -6 1 -50 -86 -99 -195 -49 -108 -92 -201 -96 -205 -4 -4 -6 2
-6 15 1 19 -8 25 -64 41 -36 10 -77 16 -92 14 -15 -2 -24 1 -21 6 3 6 -59 7
-163 4 -202 -6 -300 -27 -298 -65 0 -13 -2 -19 -6 -15 -4 4 -47 97 -96 206
-49 108 -92 197 -96 197 -3 0 -23 -27 -43 -60z"/>
<path d="M1367 2293 c-9 -2 -15 -8 -13 -12 3 -4 -5 -7 -17 -7 -21 1 -22 -3
-22 -72 0 -69 -2 -74 -27 -90 -16 -9 -28 -20 -28 -24 0 -5 -5 -8 -12 -8 -7 0
-24 -11 -39 -26 l-26 -25 -58 25 c-32 15 -63 26 -69 26 -6 0 -26 -21 -43 -47
l-33 -47 33 -36 c62 -66 61 -63 38 -125 -12 -31 -21 -65 -21 -76 0 -22 -25
-34 -93 -44 l-47 -7 0 -63 0 -63 33 -7 c86 -18 107 -26 107 -43 0 -10 9 -46
21 -80 l21 -62 -46 -51 c-25 -28 -43 -55 -40 -60 3 -5 10 -7 15 -4 5 3 6 0 4
-7 -3 -7 7 -28 23 -47 l28 -34 39 20 c75 38 79 38 153 -14 l70 -48 -6 -72 c-3
-40 -1 -73 4 -73 5 0 30 -7 56 -15 l47 -14 36 59 c39 65 46 68 147 62 l58 -4
35 -58 36 -59 47 14 c26 8 51 15 55 15 5 0 6 33 4 73 l-5 72 71 49 70 49 51
-23 c28 -12 57 -23 65 -23 8 -1 29 19 48 44 l33 47 -46 51 -46 51 21 62 c12
34 21 70 21 80 0 17 21 25 108 43 l32 7 0 63 0 63 -47 7 c-68 10 -93 22 -93
44 0 11 -9 45 -21 76 -23 62 -24 59 39 126 30 33 32 38 18 52 -9 9 -16 20 -16
26 0 5 -9 16 -20 24 -11 8 -17 17 -13 20 15 15 -28 5 -82 -19 l-58 -25 -26 24
c-14 14 -45 37 -68 52 l-42 27 6 69 c6 68 6 68 -23 80 -16 6 -44 13 -61 16
-31 5 -39 -1 -34 -29 0 -5 -3 -8 -8 -8 -6 0 -19 -17 -31 -37 l-21 -38 -84 0
-84 0 -33 57 c-33 58 -43 63 -91 51z"/>
<path d="M700 1619 c-80 -10 -152 -19 -160 -20 -77 -4 -320 -34 -320 -38 0 -4
-18 -5 -40 -3 -22 2 -40 1 -40 -3 0 -13 103 -114 111 -109 5 3 7 -1 4 -8 -2
-7 17 -36 43 -65 l48 -52 53 14 c30 8 50 10 45 5 -5 -5 -25 -12 -44 -17 -29
-8 -37 -16 -48 -49 -13 -38 -13 -39 20 -67 18 -15 39 -25 48 -22 9 3 8 0 -4
-10 -24 -18 -39 -163 -15 -151 8 4 7 1 -2 -6 -17 -14 -38 -158 -24 -158 4 0
83 42 174 94 210 118 215 121 206 107 -21 -35 155 -210 303 -299 28 -17 52
-28 52 -24 0 4 4 3 8 -3 11 -16 82 -46 93 -40 5 4 9 2 9 -3 0 -6 12 -13 26
-16 19 -5 30 -2 39 11 7 9 -7 -81 -33 -205 -25 -122 -43 -224 -40 -227 6 -7
121 45 129 58 4 5 10 43 14 83 4 41 10 76 14 78 4 3 3 -29 -2 -70 -5 -41 -7
-78 -3 -81 3 -3 32 6 63 20 68 31 71 37 72 164 1 50 4 94 9 96 4 3 6 -46 4
-108 l-3 -113 29 -21 c37 -26 37 -26 73 0 l29 20 -3 114 c-1 62 1 111 6 108 4
-2 7 -46 8 -96 1 -127 4 -133 72 -164 31 -14 60 -23 63 -20 4 3 2 40 -3 81 -5
41 -5 72 -1 70 4 -3 8 -21 8 -40 0 -19 3 -34 8 -34 4 0 6 -17 4 -38 -3 -40 7
-62 29 -66 8 -1 34 -12 57 -25 24 -12 47 -20 50 -17 3 4 -15 106 -40 228 -27
130 -40 215 -33 204 12 -16 18 -17 52 -6 57 19 161 71 228 115 62 41 215 181
215 196 0 5 9 18 21 30 11 11 18 27 15 35 -6 17 23 3 157 -75 48 -27 87 -47
87 -43 0 4 4 2 8 -4 10 -15 122 -77 128 -71 8 8 -8 147 -16 142 -4 -3 -11 2
-14 11 -4 10 -2 13 6 8 8 -5 9 13 6 65 -4 54 -10 75 -24 86 -12 10 -13 13 -4
10 9 -3 30 7 48 22 33 28 33 29 20 67 -11 33 -19 41 -48 49 -19 5 -39 12 -44
17 -5 5 15 3 45 -5 l53 -14 48 52 c26 29 45 58 43 65 -3 7 -1 11 4 8 8 -5 111
96 111 109 0 3 -15 5 -32 5 -26 0 -438 46 -650 73 -34 5 -38 3 -38 -16 0 -55
-9 -64 -78 -78 -46 -10 -67 -19 -68 -29 0 -8 -5 -24 -9 -35 -4 -11 -14 -35
-22 -54 -15 -37 -15 -36 50 -108 l30 -32 -22 -34 c-24 -39 -23 -41 47 -76 45
-23 54 -32 23 -24 -13 3 -35 -14 -77 -57 -74 -78 -158 -139 -258 -186 -62 -30
-77 -41 -73 -55 3 -11 1 -17 -3 -14 -4 3 -11 27 -15 53 -9 67 -15 75 -50 62
-39 -15 -48 -10 -83 52 l-30 54 -77 -1 -77 0 -32 -55 c-33 -56 -45 -62 -93
-46 -19 6 -22 2 -34 -51 -7 -32 -16 -62 -20 -67 -4 -5 -6 0 -3 10 4 16 -13 29
-103 74 -91 46 -123 69 -198 143 -61 59 -96 86 -107 83 -30 -7 -20 2 25 25 69
35 70 37 46 76 l-22 34 30 32 c65 72 65 71 50 108 -8 19 -18 43 -22 54 -4 11
-9 27 -9 35 -1 10 -22 19 -68 29 -69 14 -78 23 -78 79 0 12 -3 21 -7 21 -5 -1
-73 -10 -153 -20z"/>
</g>
</svg>
